<svg width="22" height="28" viewBox="0 0 22 28" fill="none" xmlns="http://www.w3.org/2000/svg">
<path d="M9.89621 6.59896C9.84231 6.81636 9.78827 7.03371 9.73414 7.25105C9.71158 7.34216 9.71158 7.34216 9.68856 7.43512C9.65815 7.55701 9.6269 7.6787 9.59482 7.80017C9.55263 7.96985 9.52086 8.14201 9.48969 8.31405C9.37759 8.58216 9.37759 8.58216 9.11356 8.70443C8.95011 8.73727 8.95011 8.73727 8.78335 8.77078C8.66456 8.79738 8.54583 8.82422 8.42714 8.85128C8.36821 8.86394 8.30929 8.8766 8.24857 8.88964C6.21937 9.34305 4.29323 10.6328 3.15965 12.3761C2.22674 13.8788 1.88432 15.5749 2.21967 17.3126C2.60022 18.8737 3.41581 20.1134 4.65572 21.1304C4.90132 21.3519 4.96731 21.493 4.99695 21.8225C5.00054 21.9488 5.00323 22.0751 5.00518 22.2015C5.00685 22.2681 5.00853 22.3347 5.01025 22.4034C5.01542 22.616 5.01943 22.8286 5.02341 23.0412C5.02671 23.1854 5.03009 23.3296 5.03354 23.4738C5.04184 23.8272 5.0491 24.1806 5.05583 24.534C5.09843 24.5032 5.14103 24.4724 5.18493 24.4407C5.24461 24.3975 5.30429 24.3544 5.36578 24.31C5.43153 24.2624 5.49728 24.2148 5.56503 24.1658C5.70874 24.0623 5.85289 23.9595 5.99746 23.8572C6.29661 23.6449 6.58516 23.4367 6.85881 23.1921C7.06619 23.0095 7.21237 22.8949 7.47602 22.8095C7.89757 22.8565 8.27987 22.9743 8.68261 23.1026C10.9343 23.7632 13.7104 23.2898 15.7576 22.2274C17.7243 21.154 19.0574 19.5375 19.733 17.4176C20.1279 15.8419 19.7826 14.0528 18.9682 12.6742C17.7631 10.7083 15.8456 9.41155 13.6129 8.84084C13.5164 8.8335 13.4199 8.82617 13.3205 8.81861C13.0045 8.7884 12.8365 8.76676 12.5757 8.58216C12.2445 7.97094 12.0571 7.20494 12.0571 6.51273C14.7719 6.6171 17.2795 7.86685 19.2312 9.7031C19.2907 9.7569 19.3502 9.81069 19.4115 9.86612C20.98 11.338 21.9038 13.523 21.9972 15.6527C22.0398 17.3051 21.6018 18.7945 20.7871 20.2227C20.74 20.3075 20.693 20.3923 20.6446 20.4797C20.2373 21.1663 19.704 21.7279 19.1448 22.2921C19.071 22.3678 18.9973 22.4435 18.9213 22.5215C16.7518 24.6224 13.6834 25.4241 10.7371 25.4231C9.84416 25.4092 8.95739 25.2865 8.08917 25.0769C7.43704 24.946 6.98977 25.2811 6.45968 25.6197C6.06427 25.8675 5.65863 26.0986 5.25571 26.334C5.0914 26.4306 4.92719 26.5273 4.76309 26.6243C4.69249 26.666 4.62188 26.7076 4.54914 26.7506C4.39869 26.8414 4.25134 26.9372 4.10504 27.0345C3.82952 27.0453 3.82952 27.0453 3.58642 27.0345C3.51763 26.5032 3.49497 25.9964 3.5091 25.4616C3.51117 25.2339 3.51234 25.0062 3.51352 24.7785C3.5153 24.623 3.51878 24.4674 3.52398 24.312C3.58254 23.3502 3.58254 23.3502 3.1932 22.5104C2.94112 22.2661 2.66054 22.0663 2.37633 21.861C2.19404 21.6764 2.03539 21.4804 1.87933 21.2736C1.84075 21.2231 1.80218 21.1727 1.76244 21.1207C0.340403 19.2205 -0.208744 16.9972 0.070303 14.6427C0.338426 12.9829 1.10894 11.4876 2.20346 10.2205C2.27499 10.1319 2.27499 10.1319 2.34797 10.0416C3.6954 8.4126 7.6336 5.84659 9.89621 6.59896Z" fill="#3E6050"/>
<path d="M12.8895 0.675642C13.003 0.720623 13.1165 0.765574 13.2299 0.810496C13.5302 0.929478 13.8302 1.04892 14.1302 1.16851C14.3154 1.2423 14.5006 1.316 14.6858 1.38966C15.1751 1.58429 15.6644 1.77897 16.1535 1.97412C16.7393 2.20785 17.3254 2.44092 17.9123 2.67174C18.1759 2.77551 18.4392 2.87999 18.7024 2.98472C18.8165 3.02991 18.9306 3.07478 19.0449 3.11931C19.1971 3.17871 19.3488 3.23938 19.5005 3.30015C19.5813 3.33203 19.662 3.36392 19.7452 3.39677C19.9226 3.49483 19.9226 3.49483 20.009 3.75351C19.8093 3.81042 19.6097 3.86733 19.4039 3.92596C19.4039 4.58042 19.4039 5.23487 19.4039 5.90916C19.5466 5.90916 19.6892 5.90916 19.8361 5.90916C19.9427 6.46007 19.9283 6.98746 19.9226 7.54746C19.3521 7.54746 18.7816 7.54746 18.1938 7.54746C18.1938 7.00682 18.1938 6.46618 18.1938 5.90916C18.3079 5.88071 18.422 5.85225 18.5396 5.82293C18.5681 5.33921 18.5966 4.85548 18.626 4.35709C18.3105 4.47713 18.3105 4.47713 17.9886 4.5996C17.4573 4.80001 16.9258 4.97962 16.3787 5.13313C16.3787 5.67376 16.3787 6.2144 16.3787 6.77142C15.9664 6.70287 15.6341 6.61665 15.2442 6.48041C12.4613 5.53529 8.92502 5.39015 6.19992 6.66094C5.92002 6.77142 5.92002 6.77142 5.57428 6.6852C5.5315 5.91692 5.5315 5.91692 5.48785 5.13313C5.28272 5.05521 5.0776 4.97729 4.86625 4.89701C4.66599 4.82085 4.46574 4.74463 4.26549 4.66842C4.1271 4.61577 3.9887 4.56317 3.85028 4.51062C3.65047 4.43475 3.45073 4.35872 3.25099 4.28265C3.18983 4.25947 3.12867 4.23629 3.06566 4.2124C2.6876 4.06821 2.31505 3.91481 1.944 3.75351C1.944 3.66815 1.944 3.58278 1.944 3.49483C4.22872 2.58125 6.51425 1.66987 8.80389 0.768625C8.87669 0.739924 8.94949 0.711223 9.0245 0.681653C9.16345 0.627063 9.30253 0.572802 9.44175 0.518913C9.71465 0.412922 9.9812 0.30508 10.2455 0.178831C11.1368 -0.244386 12.0331 0.333794 12.8895 0.675642Z" fill="#3F6250"/>
<path d="M10.847 6.94382C10.9325 6.97227 11.0181 7.00072 11.1063 7.03004C11.1987 7.24504 11.2723 7.45003 11.3413 7.67269C11.3633 7.74131 11.3854 7.80993 11.4081 7.88062C11.6836 8.74862 11.9342 9.62437 12.1859 10.4995C12.6629 12.1565 13.1503 13.8101 13.6561 15.4586C13.6811 15.5403 13.7062 15.6219 13.7319 15.706C13.8282 16.02 13.9245 16.334 14.0209 16.648C14.2293 17.327 14.4356 18.0064 14.6393 18.6867C14.6677 18.7805 14.696 18.8742 14.7252 18.9708C14.7501 19.0543 14.775 19.1379 14.8007 19.224C14.822 19.2949 14.8432 19.3658 14.8652 19.4389C14.9094 19.619 14.9094 19.619 14.9094 19.8777C14.6284 19.8249 14.4527 19.7296 14.2254 19.5584C14.1278 19.4857 14.1278 19.4857 14.0282 19.4115C13.9589 19.359 13.8896 19.3066 13.8182 19.2526C13.6712 19.1429 13.5243 19.0334 13.3772 18.9239C13.3021 18.8677 13.227 18.8116 13.1496 18.7538C12.788 18.4853 12.4227 18.222 12.0571 17.9592C11.9587 17.8883 11.9587 17.8883 11.8583 17.816C11.4153 17.4433 11.4153 17.4433 10.8972 17.3073C10.6544 17.3833 10.5035 17.4776 10.3024 17.6321C10.2328 17.685 10.1632 17.7378 10.0915 17.7922C10.0181 17.8491 9.94475 17.906 9.86916 17.9646C9.71475 18.0823 9.56034 18.1999 9.40592 18.3176C9.32887 18.3767 9.25183 18.4358 9.17245 18.4968C8.83758 18.7531 8.49993 19.0056 8.16206 19.258C8.10504 19.3008 8.04801 19.3436 7.98926 19.3878C7.33585 19.8777 7.33585 19.8777 7.04381 19.8777C7.09993 19.3802 7.22361 18.9229 7.37064 18.4449C7.3953 18.3634 7.41995 18.282 7.44536 18.198C7.499 18.021 7.55285 17.844 7.60687 17.667C7.69359 17.383 7.77979 17.0988 7.86585 16.8145C7.95729 16.5125 8.04875 16.2105 8.14036 15.9085C8.46108 14.8513 8.77803 13.7929 9.09433 12.7343C9.18801 12.4208 9.28177 12.1072 9.37554 11.7937C9.64462 10.8935 9.91306 9.99312 10.1781 9.09172C10.1989 9.02094 10.2197 8.95017 10.2412 8.87725C10.3346 8.55946 10.4277 8.2416 10.5204 7.92363C10.5515 7.81737 10.5826 7.71111 10.6147 7.60163C10.6411 7.51099 10.6675 7.42035 10.6947 7.32697C10.7605 7.11627 10.7605 7.11627 10.847 6.94382ZM10.2419 15.0491C10.0404 15.3439 9.98261 15.5156 9.98261 15.8736C10.0882 16.2358 10.1978 16.3774 10.5012 16.6011C10.8344 16.6961 11.0171 16.7246 11.3386 16.5904C11.6491 16.3392 11.8586 16.1474 11.9274 15.7443C11.8729 15.411 11.7479 15.2256 11.5384 14.9628C11.0947 14.6677 10.6499 14.7099 10.2419 15.0491Z" fill="#72987A"/>
<path d="M8.85887 23.1544C8.85887 23.1828 8.85887 23.2113 8.85887 23.2406C8.51206 23.248 8.19182 23.2335 7.84866 23.1813C7.54475 23.1389 7.54475 23.1389 7.27602 23.2837C7.22789 23.3264 7.17975 23.3691 7.13016 23.4131C6.94817 23.378 6.94817 23.378 6.78442 23.3268C7.39883 22.5768 8.059 22.8852 8.85887 23.1544Z" fill="#1F352C"/>
<path d="M17.1568 21.2573C17.2138 21.2858 17.2709 21.3142 17.3296 21.3435C16.9883 21.8011 16.5979 22.1917 16.027 22.3378C15.8602 22.3621 15.8602 22.3621 15.6009 22.3782C15.8967 22.1343 16.1986 21.9223 16.5247 21.7208C16.8605 21.5139 16.8605 21.5139 17.1568 21.2573Z" fill="#243E33"/>
<path d="M3.4134 9.01323C3.4134 9.33573 3.33265 9.39718 3.12168 9.63298C3.04045 9.72552 3.04045 9.72552 2.95759 9.81992C2.80835 9.96172 2.80835 9.96172 2.63548 9.96172C2.61409 10.0133 2.59269 10.0649 2.57065 10.118C2.44846 10.3313 2.31994 10.4302 2.11687 10.5653C2.05982 10.5368 2.00277 10.5084 1.944 10.4791C2.40834 9.95528 2.86589 9.45256 3.4134 9.01323Z" fill="#243E34"/>
<path d="M9.89621 6.59896C9.86768 6.74123 9.83898 6.88352 9.80959 7.0301C9.77884 6.98598 9.74809 6.94185 9.7164 6.89638C9.54912 6.74288 9.54912 6.74289 9.28152 6.78389C9.17768 6.80289 9.07384 6.8219 8.96685 6.84148C8.54859 6.91599 8.16039 6.95421 7.73514 6.94388C8.10135 6.74511 8.45654 6.69149 8.8642 6.62592C8.96991 6.60749 8.96991 6.60749 9.07776 6.5887C9.14556 6.57753 9.21336 6.56636 9.28321 6.55485C9.34484 6.54466 9.40646 6.53447 9.46995 6.52397C9.63672 6.51275 9.6369 6.51274 9.89621 6.59896Z" fill="#1C2D26"/>
<path d="M16.7244 2.28768C17.3821 2.4662 18.0013 2.70659 18.626 2.97749C18.626 3.00594 18.626 3.0344 18.626 3.06371C18.2001 3.10354 17.8907 2.96261 17.5024 2.80503C17.5024 2.74812 17.5024 2.69122 17.5024 2.63258C17.4061 2.62013 17.3098 2.60768 17.2106 2.59486C16.8973 2.54636 16.8973 2.54636 16.7244 2.46013C16.7244 2.40322 16.7244 2.34631 16.7244 2.28768Z" fill="#1F342B"/>
<path d="M18.5396 19.8778C18.5967 19.9347 18.6537 19.9917 18.7125 20.0503C18.6636 20.1043 18.6146 20.1583 18.5643 20.214C18.5009 20.2845 18.4375 20.3549 18.3721 20.4275C18.309 20.4976 18.2458 20.5676 18.1807 20.6397C18.0184 20.8142 18.0184 20.8142 17.9346 20.9988C17.8775 20.9988 17.8205 20.9988 17.7617 20.9988C17.7617 21.0557 17.7617 21.1126 17.7617 21.1712C17.6761 21.1997 17.5905 21.2281 17.5024 21.2575C17.5024 20.9988 17.5024 20.9988 17.6634 20.8159C17.7333 20.75 17.8032 20.6841 17.8751 20.6161C18.1218 20.382 18.3434 20.1559 18.5396 19.8778Z" fill="#274338"/>
<path d="M5.92017 7.54744C5.92017 7.6328 5.92017 7.71817 5.92017 7.80612C5.02352 8.28517 5.02352 8.28517 4.5372 8.32347C4.75285 8.08063 4.99234 7.94326 5.27731 7.78995C5.3612 7.74427 5.4451 7.69858 5.53155 7.65152C5.7473 7.54744 5.7473 7.54744 5.92017 7.54744Z" fill="#21392E"/>
<path d="M6.35229 23.5855C6.40934 23.6139 6.46638 23.6424 6.52516 23.6717C6.11596 24.1047 5.67804 24.5638 5.05576 24.6202C5.43695 24.2019 5.88381 23.9004 6.35229 23.5855Z" fill="#233C32"/>
<path d="M2.80835 3.23617C2.80835 3.29308 2.80835 3.34999 2.80835 3.40862C2.66527 3.49646 2.52116 3.58264 2.37617 3.6673C2.34765 3.72421 2.31913 3.78112 2.28974 3.83975C2.17564 3.8113 2.06155 3.78283 1.944 3.75351C1.944 3.66815 1.944 3.58278 1.944 3.49483C2.05551 3.45137 2.16718 3.40835 2.27893 3.36551C2.37219 3.3295 2.37219 3.3295 2.46734 3.29276C2.63548 3.23617 2.63548 3.23617 2.80835 3.23617Z" fill="#263C33"/>
<path d="M10.4148 8.3235C10.5226 8.63043 10.4783 8.82877 10.3878 9.13726C10.3649 9.21718 10.3421 9.29709 10.3185 9.37943C10.245 9.6072 10.1611 9.82713 10.069 10.048C9.98449 9.78449 9.98188 9.62958 10.0687 9.36764C10.0885 9.30651 10.1083 9.24538 10.1286 9.18239C10.15 9.11948 10.1713 9.05657 10.1933 8.99175C10.2248 8.89538 10.2248 8.89538 10.2569 8.79707C10.3087 8.63895 10.3617 8.48119 10.4148 8.3235Z" fill="#2D4C3D"/>
<path d="M11.2899 0.0833842C11.4079 0.120564 11.4079 0.120564 11.5283 0.158495C11.5887 0.178169 11.649 0.197843 11.7113 0.218112C11.7113 0.246567 11.7113 0.275022 11.7113 0.304339C11.2834 0.275884 10.8556 0.247429 10.4147 0.218112C10.7909 -0.0320271 10.8645 -0.0526452 11.2899 0.0833842Z" fill="#1C332A"/>
<path d="M4.5372 8.32347C4.5372 8.40884 4.53723 8.49423 4.53723 8.58218C4.29953 8.77619 4.29953 8.77619 4.01861 8.92708C3.82819 8.8934 3.82819 8.8934 3.67287 8.84086C3.78413 8.75413 3.89587 8.66802 4.00781 8.58218C4.06998 8.53416 4.13215 8.48614 4.19621 8.43667C4.36436 8.3235 4.36433 8.32347 4.5372 8.32347Z" fill="#244034"/>
<path d="M14.5636 1.4253C15.4762 1.69046 15.4762 1.69046 15.8601 1.85643C15.8601 1.88488 15.8601 1.91334 15.8601 1.94265C15.689 1.94265 15.5179 1.94265 15.3415 1.94265C15.3415 1.88574 15.3415 1.82883 15.3415 1.7702C15.1133 1.74175 14.8852 1.71329 14.6501 1.68397C14.6215 1.59861 14.593 1.51325 14.5636 1.4253Z" fill="#1C3027"/>
<path d="M17.5024 8.40961C17.8994 8.53774 18.1451 8.74159 18.4532 9.01319C18.3676 9.04165 18.282 9.0701 18.1939 9.09942C18.0173 9.00073 18.0173 9.00073 17.8319 8.85691C17.7701 8.81011 17.7082 8.76332 17.6445 8.7151C17.5976 8.6712 17.5507 8.6273 17.5024 8.58206C17.5024 8.52515 17.5024 8.46824 17.5024 8.40961Z" fill="#21392F"/>
<path d="M12.0571 6.51273C12.3994 6.54119 12.7416 6.56953 13.0942 6.59885C13.0942 6.6273 13.0942 6.65576 13.0942 6.68508C13.0401 6.6873 12.9859 6.68952 12.9301 6.69181C12.8595 6.6967 12.7889 6.70159 12.7161 6.70663C12.6459 6.71063 12.5757 6.71464 12.5034 6.71876C12.3 6.75339 12.3 6.75339 12.2049 6.9478C12.1846 7.00337 12.1643 7.05895 12.1434 7.11621C12.1149 6.91702 12.0865 6.71795 12.0571 6.51273Z" fill="#1E3229"/>
<path d="M9.89614 10.048C9.9927 10.1922 9.9927 10.1922 10.069 10.393C10.0103 10.6153 10.0103 10.6153 9.90694 10.8456C9.87329 10.9226 9.83964 10.9995 9.80497 11.0787C9.77801 11.137 9.75105 11.1952 9.72326 11.2552C9.61511 10.9494 9.66078 10.7618 9.76108 10.4576C9.78593 10.3807 9.81077 10.3038 9.83637 10.2245C9.85609 10.1663 9.87582 10.1081 9.89614 10.048Z" fill="#3F614E"/>
<path d="M19.5769 3.4086C19.7908 3.49397 19.7908 3.49397 20.009 3.58106C20.009 3.63797 20.009 3.69488 20.009 3.75351C19.8378 3.81042 19.6668 3.86733 19.4904 3.92596C19.4904 3.86905 19.4904 3.81214 19.4904 3.75351C19.5475 3.75351 19.6045 3.75351 19.6633 3.75351C19.6348 3.63969 19.6063 3.52587 19.5769 3.4086Z" fill="#22362C"/>
<path d="M12.1434 0.476804C12.4286 0.562168 12.7139 0.647532 13.0078 0.735482C13.0078 0.763937 13.0078 0.792391 13.0078 0.821708C12.751 0.793254 12.4943 0.764799 12.2298 0.735482C12.2013 0.650118 12.1728 0.564755 12.1434 0.476804Z" fill="#1E342A"/>
<path d="M16.811 7.97863C17.1028 8.08088 17.299 8.17471 17.5024 8.40961C17.1858 8.36694 17.0124 8.31864 16.811 8.06486C16.811 8.0364 16.811 8.00795 16.811 7.97863Z" fill="#1D3329"/>
</svg>
